<svg width="32" height="32" viewBox="0 0 32 32" fill="none" xmlns="http://www.w3.org/2000/svg">
<circle cx="16" cy="21" r="2" fill="#333333"/>
<path d="M23 21.845C23 20.9257 22.8189 20.0155 22.4672 19.1662C22.1154 18.3169 21.5998 17.5452 20.9497 16.8952C20.2997 16.2452 19.5281 15.7296 18.6788 15.3778C17.8295 15.026 16.9193 14.845 16 14.845C15.0807 14.845 14.1705 15.026 13.3212 15.3778C12.4719 15.7296 11.7003 16.2452 11.0503 16.8952C10.4002 17.5452 9.88463 18.3169 9.53284 19.1662C9.18106 20.0155 9 20.9257 9 21.845" stroke="#333333" stroke-width="1.3"/>
<path d="M28 21C28 19.4241 27.6896 17.8637 27.0866 16.4078C26.4835 14.9519 25.5996 13.629 24.4853 12.5147C23.371 11.4004 22.0481 10.5165 20.5922 9.91345C19.1363 9.31039 17.5759 9 16 9C14.4241 9 12.8637 9.31039 11.4078 9.91345C9.95189 10.5165 8.62902 11.4004 7.51472 12.5147C6.40041 13.629 5.5165 14.9519 4.91345 16.4078C4.31039 17.8637 4 19.4241 4 21" stroke="#333333" stroke-width="1.3"/>
<path d="M23.0426 21.7788L27.9514 21.0138" stroke="#333333" stroke-width="1.4" stroke-linecap="round"/>
<path d="M8.95642 21.7649L4.04764 20.9999" stroke="#333333" stroke-width="1.4" stroke-linecap="round"/>
<path d="M23.2457 13.7543L16 21" stroke="#333333" stroke-width="1.4" stroke-linecap="round"/>
</svg>
