<svg width="32" height="32" viewBox="0 0 32 32" fill="none" xmlns="http://www.w3.org/2000/svg">
<rect x="4.41332" y="10.6019" width="18.4773" height="12.7045" rx="0.684091" transform="rotate(-13.1023 4.41332 10.6019)" fill="white" stroke="#333333" stroke-width="0.977273"/>
<rect x="5.37976" y="12.5986" width="17.5" height="1.67532" transform="rotate(-13.1023 5.37976 12.5986)" fill="#333333"/>
<rect x="8.20996" y="18.8203" width="4.03846" height="0.977273" rx="0.224773" transform="rotate(-13.1023 8.20996 18.8203)" fill="#333333"/>
<rect x="7.8302" y="17.1887" width="6.05769" height="0.977273" rx="0.224773" transform="rotate(-13.1023 7.8302 17.1887)" fill="#333333"/>
<mask id="path-5-inside-1_2331_7151" fill="white">
<rect x="18.9747" y="14.595" width="3.36539" height="3.35065" rx="0.224773" transform="rotate(-13.1023 18.9747 14.595)"/>
</mask>
<rect x="18.9747" y="14.595" width="3.36539" height="3.35065" rx="0.224773" transform="rotate(-13.1023 18.9747 14.595)" stroke="#333333" stroke-width="1.95455" mask="url(#path-5-inside-1_2331_7151)"/>
<path d="M21.6285 12.5695L21.669 12.2386L21.6285 12.5695C21.6769 12.5754 21.7258 12.5754 21.7741 12.5695L26.968 11.9347V19.7714C26.968 21.2324 25.9718 22.5942 24.7537 23.6164C24.1517 24.1216 23.5126 24.5289 22.9525 24.8083C22.3775 25.0952 21.9307 25.2248 21.7013 25.2248C21.3023 25.2248 20.7697 25.0848 20.1819 24.8055C19.5991 24.5285 18.984 24.1249 18.4237 23.6234C17.296 22.614 16.4347 21.2505 16.4347 19.7714L16.4347 11.9347L21.6285 12.5695ZM16.1013 11.8565L16.3683 11.8565L16.1013 11.8565Z" fill="white" stroke="#333333" stroke-width="0.666667"/>
<path d="M27.3014 19.7714C27.3014 22.7912 23.4676 25.2382 21.966 25.5291C21.8214 25.5571 21.7014 25.4387 21.7014 25.2914V12.4786C21.7014 12.3438 21.802 12.2303 21.9357 12.2139L27.0024 11.5947C27.1613 11.5752 27.3014 11.6964 27.3014 11.8565V19.7714Z" fill="#F5F5F5"/>
<path d="M27.3014 19.7714C27.3014 22.7912 23.4676 25.2382 21.966 25.5291C21.8214 25.5571 21.7014 25.4387 21.7014 25.2914V12.4786C21.7014 12.3438 21.802 12.2303 21.9357 12.2139L27.0024 11.5947C27.1613 11.5752 27.3014 11.6964 27.3014 11.8565V19.7714Z" stroke="#333333"/>
<mask id="path-8-inside-2_2331_7151" fill="white">
<path fill-rule="evenodd" clip-rule="evenodd" d="M27.3012 15.9015V11.8564C27.3012 11.6963 27.1611 11.5752 27.0021 11.5946L26.5487 11.65C23.6569 16.5408 21.3414 18.8585 16.5121 21.6265C16.9479 22.6065 17.6856 23.466 18.5038 24.1295C22.4296 21.5959 24.7112 19.5381 27.3012 15.9015Z"/>
</mask>
<path fill-rule="evenodd" clip-rule="evenodd" d="M27.3012 15.9015V11.8564C27.3012 11.6963 27.1611 11.5752 27.0021 11.5946L26.5487 11.65C23.6569 16.5408 21.3414 18.8585 16.5121 21.6265C16.9479 22.6065 17.6856 23.466 18.5038 24.1295C22.4296 21.5959 24.7112 19.5381 27.3012 15.9015Z" fill="#27D682"/>
<path d="M27.3012 15.9015L27.8442 16.2882L27.9678 16.1146V15.9015H27.3012ZM27.0021 11.5946L26.9213 10.9328H26.9213L27.0021 11.5946ZM26.5487 11.65L26.4678 10.9883L26.1419 11.0281L25.9748 11.3107L26.5487 11.65ZM16.5121 21.6265L16.1806 21.0481L15.6583 21.3474L15.903 21.8974L16.5121 21.6265ZM18.5038 24.1295L18.0839 24.6473L18.4592 24.9517L18.8653 24.6896L18.5038 24.1295ZM26.6345 11.8564V15.9015H27.9678V11.8564H26.6345ZM27.083 12.2563C26.8545 12.2843 26.6345 12.1064 26.6345 11.8564H27.9678C27.9678 11.2862 27.4677 10.8661 26.9213 10.9328L27.083 12.2563ZM26.6296 12.3117L27.083 12.2563L26.9213 10.9328L26.4678 10.9883L26.6296 12.3117ZM25.9748 11.3107C24.5449 13.7292 23.2761 15.4794 21.7867 16.9618C20.298 18.4435 18.565 19.6814 16.1806 21.0481L16.8436 22.2049C19.2885 20.8036 21.1279 19.4987 22.7273 17.9068C24.3259 16.3157 25.6608 14.4617 27.1226 11.9893L25.9748 11.3107ZM18.9237 23.6117C18.1662 22.9975 17.5046 22.2176 17.1212 21.3556L15.903 21.8974C16.3913 22.9954 17.2049 23.9346 18.0839 24.6473L18.9237 23.6117ZM18.8653 24.6896C22.8508 22.1175 25.1981 20.0037 27.8442 16.2882L26.7581 15.5148C24.2244 19.0724 22.0083 21.0743 18.1423 23.5694L18.8653 24.6896Z" fill="#333333" mask="url(#path-8-inside-2_2331_7151)"/>
<path d="M21.6285 12.5695L21.669 12.2386L21.6285 12.5695C21.6769 12.5754 21.7258 12.5754 21.7741 12.5695L26.968 11.9347V19.7714C26.968 21.2324 25.9718 22.5942 24.7537 23.6164C24.1517 24.1216 23.5126 24.5289 22.9525 24.8083C22.3775 25.0952 21.9307 25.2248 21.7013 25.2248C21.3023 25.2248 20.7697 25.0848 20.1819 24.8055C19.5991 24.5285 18.984 24.1249 18.4237 23.6234C17.296 22.614 16.4347 21.2505 16.4347 19.7714L16.4347 11.9347L21.6285 12.5695ZM16.1013 11.8565L16.3683 11.8565L16.1013 11.8565Z" stroke="#333333" stroke-width="0.666667"/>
</svg>
