<svg width="32" height="32" viewBox="0 0 32 32" fill="none" xmlns="http://www.w3.org/2000/svg">
<path fill-rule="evenodd" clip-rule="evenodd" d="M16.347 18V17.2077C17.6879 17.1366 18.47 16.3544 18.47 15.1253C18.47 13.8962 17.7996 13.2562 16.7229 12.8499L16.347 12.7178V11.316C16.5603 11.4176 16.6924 11.6106 16.7432 11.8646H18.277C18.277 10.8691 17.5253 9.95485 16.347 9.79233V9H15.7985V9.77201C14.4779 9.84312 13.7059 10.6659 13.7059 11.895C13.7059 13.0226 14.4881 13.6828 15.4328 14.0384L15.7985 14.1603V15.6941C15.4836 15.6027 15.2601 15.3691 15.25 14.9729H13.7161C13.7059 16.2427 14.5897 17.0756 15.7985 17.1975V18H16.347ZM15.7984 12.5044C15.4429 12.352 15.2397 12.1794 15.2397 11.8645C15.2397 11.5496 15.4632 11.3159 15.7984 11.2651V12.5044ZM16.347 14.3836V15.7245C16.6721 15.6737 16.9362 15.4705 16.9362 15.1251C16.9362 14.8102 16.733 14.5868 16.347 14.3836Z" fill="#333333"/>
<path d="M6 13.3529V24C6 24.5523 6.44772 25 7 25H25C25.5523 25 26 24.5523 26 24V13.3529M6 13.3529L16 21.7059L26 13.3529M6 13.3529L10 10.9706M26 13.3529L22 10.9706M10 16.6941V10.9706M22 16.6941V10.9706M22 10.9706V7H10V10.9706" stroke="#333333" stroke-width="1.4" stroke-linecap="round" stroke-linejoin="round"/>
</svg>
