<svg width="32" height="32" viewBox="0 0 32 32" fill="none" xmlns="http://www.w3.org/2000/svg">
<path d="M8.46643 7.96637L12.5327 9.53262L11.5267 10.0266L20.7435 19.2434L22.6093 17.1965L22.961 17.5482L21.923 18.5865L24.2793 20.9428C25.2229 21.8864 25.2409 23.3983 24.3195 24.3197C23.3981 25.2411 21.8862 25.2231 20.9426 24.2795L18.5863 21.9232L17.5481 22.9611L17.1964 22.6094L19.2435 20.7434L10.0267 11.5266L10.0206 11.0206L7.96643 8.46637L8.46643 7.96637Z" fill="#333333"/>
<path d="M7.9743 8.47437L9.53225 12.5323L10.027 11.527L19.2166 20.7167L17.17 22.5828L17.5207 22.9335L18.5589 21.8954L20.9083 24.2448C21.8491 25.1856 23.3588 25.2013 24.2802 24.2799C25.2016 23.3585 25.1858 21.8489 24.245 20.9081L21.8957 18.5587L22.9336 17.5206L22.5829 17.1699L20.7166 19.2167L11.527 10.027L11.0217 10.0218L8.4743 7.97437L7.9743 8.47437Z" fill="#333333"/>
<path d="M18.2519 8.04217L18.2519 8.04215L18.2485 8.04542L18.1925 8.10039L18.1925 8.10037L18.1892 8.10367C16.9176 9.37534 16.5098 11.2445 17.1391 12.8315L12.8314 17.1392C11.2444 16.51 9.37522 16.9177 8.10356 18.1893C6.94348 19.3494 6.50508 21.0025 6.90929 22.4849L6.90927 22.4849L6.91054 22.4894L6.92566 22.5428L7.15756 23.3631L7.76032 22.7604L10.2207 20.3004L10.2375 20.2849C10.3395 20.2008 10.4901 20.2073 10.5847 20.3018C10.5847 20.3019 10.5847 20.3019 10.5847 20.3019L11.9215 21.639L11.937 21.6559C12.0211 21.7578 12.0146 21.9084 11.92 22.003C11.92 22.003 11.92 22.003 11.92 22.003L9.46161 24.4613L8.86163 25.0613L9.67715 25.2954L9.73056 25.3108L9.73055 25.3108L9.73703 25.3126C11.193 25.7096 12.8135 25.2937 13.9699 24.1798L13.9699 24.1799L13.9732 24.1766L14.0292 24.1216L14.0292 24.1216L14.0325 24.1183C15.263 22.8879 15.6869 21.0963 15.1377 19.5376L19.5375 15.1378C21.0962 15.687 22.8878 15.2631 24.1182 14.0327C25.2783 12.8726 25.7167 11.2195 25.3125 9.73714L25.3125 9.73714L25.3109 9.73158L25.2957 9.67809L25.0625 8.86044L24.4613 9.46162L22.0011 11.9217L21.9842 11.9371C21.8823 12.0212 21.7317 12.0147 21.6371 11.9202C21.6371 11.9201 21.6371 11.9201 21.637 11.9201L20.3002 10.583L20.2848 10.5661C20.2007 10.4642 20.2072 10.3136 20.3018 10.219L22.7603 7.76038L23.3644 7.15631L22.5419 6.92543L22.4883 6.9104L22.4883 6.91039L22.4847 6.9094C21.0288 6.51241 19.4082 6.92826 18.2519 8.04217Z" fill="#722DCC" stroke="#333333"/>
<path d="M9.90647 19.9099C10.2064 19.6512 11.2517 20.411 11.5331 20.6924L21.071 11.5535L19.9391 10.9289L19.9098 10.8971C19.6511 10.5971 19.6667 10.1468 19.9482 9.86531L22.4066 7.40704L22.3532 7.39171C21.0732 7.04269 19.6328 7.406 18.5987 8.40218L18.5427 8.45714C17.4205 9.57937 17.0598 11.2107 17.5842 12.5963L17.6651 12.8103L12.8102 17.6652L12.5962 17.5843C11.2106 17.0599 9.57928 17.4206 8.45706 18.5428C7.41936 19.5805 7.03626 21.05 7.39162 22.3532L7.40688 22.4067L9.8746 19.9392L9.90647 19.9099Z" fill="white"/>
<path d="M18.2519 8.04217L18.2519 8.04215L18.2485 8.04542L18.1925 8.10039L18.1925 8.10037L18.1892 8.10367C16.9176 9.37534 16.5098 11.2445 17.1391 12.8315L12.8314 17.1392C11.2444 16.51 9.37522 16.9177 8.10356 18.1893C6.94348 19.3494 6.50508 21.0025 6.90929 22.4849L6.90927 22.4849L6.91054 22.4894L6.92566 22.5428L7.15756 23.3631L7.76032 22.7604L10.2207 20.3004L10.2375 20.2849C10.3395 20.2008 10.4901 20.2073 10.5847 20.3018C10.5847 20.3019 10.5847 20.3019 10.5847 20.3019L11.9215 21.639L11.937 21.6559C12.0211 21.7578 12.0146 21.9084 11.92 22.003C11.92 22.003 11.92 22.003 11.92 22.003L9.46161 24.4613L8.86163 25.0613L9.67715 25.2954L9.73056 25.3108L9.73055 25.3108L9.73703 25.3126C11.193 25.7096 12.8135 25.2937 13.9699 24.1798L13.9699 24.1799L13.9732 24.1766L14.0292 24.1216L14.0292 24.1216L14.0325 24.1183C15.263 22.8879 15.6869 21.0963 15.1377 19.5376L19.5375 15.1378C21.0962 15.687 22.8878 15.2631 24.1182 14.0327C25.2783 12.8726 25.7167 11.2195 25.3125 9.73714L25.3125 9.73714L25.3109 9.73159L25.2957 9.6781L25.0626 8.86042L24.4613 9.46162L22.0011 11.9217L21.9842 11.9371C21.8823 12.0212 21.7317 12.0147 21.6371 11.9202C21.6371 11.9201 21.6371 11.9201 21.637 11.9201L20.3003 10.583L20.2848 10.5661C20.2007 10.4642 20.2072 10.3136 20.3018 10.219L22.7603 7.76038L23.3644 7.1563L22.5419 6.92543L22.4883 6.9104L22.4883 6.91038L22.4847 6.9094C21.0288 6.51241 19.4082 6.92826 18.2519 8.04217Z" stroke="#333333"/>
</svg>
